<svg xmlns="http://www.w3.org/2000/svg" width="32" height="32" viewBox="0 0 32 32">
  <defs>
    <linearGradient id="fg-gradient" x1="4" y1="28" x2="28" y2="4" gradientUnits="userSpaceOnUse">
      <stop offset="0" stop-color="#22d3ee"/>
      <stop offset="1" stop-color="#a855f7"/>
    </linearGradient>
  </defs>
  <rect width="32" height="32" rx="5" fill="#030712"/>
  <path
    d="M8 8.5V19c0 5.2 3.3 8.5 8.1 8.5 3.7 0 6.2-1.6 7.5-4.3l-3.6-1.8c-.8 1.6-2 2.5-3.8 2.5-2.4 0-3.8-1.5-3.8-4.2V8.5H8Z"
    fill="#0ea5e9"
  />
  <path
    d="M24 23.3V8.5h-4.4v9.6c0 1-.2 1.6-.8 2.2-.6.6-1.4.8-2.4.8-1.6 0-2.7-.7-3.2-1.9l-3.8 1.6c.9 2.6 3.6 4.2 7 4.2 2.3 0 4.2-.6 5.6-1.9Z"
    fill="#111827"
  />
  <path
    d="M10.2 6.8 6.5 5.2 5 8.9l3.2 1.4 2-3.5Z"
    fill="#f97316"
  />
  <path
    d="M12.2 26.8 25.1 5.5l3.9 2.2-12.9 21.3-3.9-2.2Z"
    fill="url(#fg-gradient)"
  />
</svg>